<svg width="18" height="18" viewBox="0 0 18 18" fill="none" xmlns="http://www.w3.org/2000/svg">
<path d="M15 0.215027H2.5C1.11914 0.215027 0 1.33417 0 2.67987V15.1799C0 16.5607 1.11914 17.6799 2.5 17.6799H15C16.3809 17.6799 17.5 16.5607 17.5 15.1799V2.67987C17.5 1.36932 16.3789 0.215027 15 0.215027ZM16.25 15.2502C16.25 15.9392 15.6891 16.5002 15 16.5002H2.5C1.81094 16.5002 1.25 15.9392 1.25 15.2502V2.75018C1.25 2.06112 1.81094 1.50018 2.5 1.50018H15C15.6891 1.50018 16.25 2.06112 16.25 2.75018V15.2502Z" fill="#D2D2D5"/>
</svg>
